<?xml version="1.0" encoding="utf-8"?>
<!-- Generator: Adobe Illustrator 16.0.0, SVG Export Plug-In . SVG Version: 6.00 Build 0)  -->
<!DOCTYPE svg PUBLIC "-//W3C//DTD SVG 1.1//EN" "http://www.w3.org/Graphics/SVG/1.1/DTD/svg11.dtd">
<svg version="1.1" id="Layer_1" xmlns="http://www.w3.org/2000/svg" xmlns:xlink="http://www.w3.org/1999/xlink" x="0px" y="0px"
	 width="128px" height="42px" viewBox="34.5 28.5 128 42" enable-background="new 34.5 28.5 128 42" xml:space="preserve">
<polygon fill="#FFFFFF" points="66.441,54.334 66.352,61.893 72.159,61.893 72.159,48.315 "/>
<path fill="#FFFFFF" d="M131.121,46.9c-1.301-1.081-3.112-1.621-5.436-1.621c-1.269,0-2.504,0.09-3.707,0.267
	c-1.199,0.18-2.236,0.429-3.107,0.745v4.105c0.893-0.215,1.848-0.388,2.871-0.518c1.021-0.13,1.951-0.195,2.783-0.195
	c0.91,0,1.621,0.195,2.129,0.582c0.504,0.389,0.76,0.928,0.76,1.623v0.385c-1.051-0.396-2.104-0.594-3.155-0.594
	c-2.146,0-3.793,0.45-4.942,1.354c-1.151,0.903-1.729,2.196-1.729,3.887c0,1.685,0.5,2.986,1.506,3.896
	c1.002,0.916,2.424,1.369,4.271,1.369c1.822,0,3.49-0.385,5-1.16c1.43,0.697,2.998,1.041,4.705,1.041V51.41
	C133.07,49.487,132.418,47.985,131.121,46.9 M127.414,57.873c-0.598,0.22-1.164,0.326-1.696,0.326c-1.53,0-2.294-0.469-2.294-1.399
	c0-1.013,0.764-1.517,2.294-1.517c0.515,0,1.081,0.117,1.696,0.355V57.873z"/>
<path fill="#FFFFFF" d="M87.27,46.9c-1.301-1.081-3.113-1.621-5.436-1.621c-1.268,0-2.503,0.09-3.707,0.267
	c-1.199,0.18-2.236,0.429-3.108,0.745v4.105c0.893-0.215,1.848-0.388,2.871-0.518s1.952-0.195,2.784-0.195
	c0.911,0,1.621,0.195,2.129,0.582c0.504,0.389,0.76,0.928,0.76,1.623v0.385c-1.052-0.396-2.104-0.594-3.155-0.594
	c-2.147,0-3.793,0.45-4.943,1.354c-1.152,0.903-1.729,2.196-1.729,3.887c0,1.685,0.501,2.986,1.506,3.896
	c1.002,0.916,2.425,1.369,4.272,1.369c1.823,0,3.49-0.385,5-1.16c1.43,0.697,2.997,1.041,4.704,1.041V51.41
	C89.218,49.487,88.566,47.985,87.27,46.9 M83.563,57.873c-0.598,0.22-1.164,0.326-1.697,0.326c-1.531,0-2.294-0.469-2.294-1.399
	c0-1.013,0.763-1.517,2.294-1.517c0.515,0,1.081,0.117,1.697,0.355V57.873z"/>
<path fill="#FFFFFF" d="M97.838,56.607c-0.306-0.15-0.778-0.295-1.416-0.433l-0.86-0.18c-1.074-0.218-1.946-0.493-2.623-0.832
	c-0.673-0.339-1.199-0.826-1.578-1.459c-0.374-0.636-0.565-1.479-0.565-2.533c0-1.843,0.602-3.288,1.801-4.329
	c1.203-1.041,2.864-1.563,4.989-1.563c0.972,0,1.949,0.094,2.932,0.28c0.983,0.192,1.779,0.426,2.396,0.703v3.958
	c-0.735-0.26-1.476-0.443-2.233-0.551c-0.753-0.109-1.387-0.163-1.905-0.163c-1.488,0-2.234,0.239-2.234,0.714
	c0,0.198,0.155,0.36,0.465,0.49c0.306,0.129,0.778,0.264,1.412,0.403l0.803,0.177c1.571,0.359,2.77,0.93,3.601,1.714
	c0.837,0.782,1.25,1.972,1.25,3.556c0,1.77-0.59,3.148-1.768,4.14c-1.183,0.993-2.813,1.487-4.899,1.487
	c-0.973,0-2.014-0.107-3.127-0.328c-1.109-0.215-2.053-0.522-2.828-0.922v-3.931c0.775,0.321,1.6,0.552,2.471,0.703
	c0.876,0.146,1.697,0.224,2.472,0.224c0.713,0,1.21-0.059,1.487-0.166c0.277-0.107,0.418-0.291,0.418-0.553
	C98.299,56.962,98.144,56.755,97.838,56.607"/>
<path fill="#FFFFFF" d="M117.084,57.691v4.109c-1.486,0.258-2.85,0.387-4.078,0.387c-1.23,0-2.322-0.24-3.273-0.728
	c-0.955-0.485-1.688-1.181-2.205-2.071c-0.514-0.89-0.774-1.925-0.774-3.095v-6.729h-2.379v-3.986h2.379V42.42l5.656-1.607v4.766
	h4.528v3.987h-4.528V55.4c0,0.715,0.223,1.291,0.67,1.727c0.446,0.439,1.037,0.656,1.772,0.656
	C115.563,57.783,116.311,57.754,117.084,57.691"/>
<path fill="#FFFFFF" d="M151.887,51.857v10.035h-5.658v-9.591c0-0.892-0.217-1.551-0.651-1.977
	c-0.438-0.429-1.103-0.642-1.995-0.642c-0.895,0-1.775,0.271-2.652,0.803v11.404h-5.654V45.398c2.024,0,3.771,0.437,5.24,1.312
	c1.846-0.955,3.643-1.43,5.387-1.43C149.891,45.28,151.887,47.473,151.887,51.857"/>
<path fill="#FFFFFF" d="M52.125,51.764v-0.002v-0.022c0,0,0,0,0,0.001v-8.378c-0.13-0.119-0.259-0.242-0.389-0.358
	c-2.54-2.295-4.316-3.44-5.328-3.44v22.331h5.836L52.125,51.764z"/>
<path fill="#29B473" d="M72.151,39.564L72.151,39.564L59.299,50.846c-1.85-2.171-3.708-4.164-5.578-5.981v8.507
	c0.66,0.697,1.337,1.436,2.034,2.225c1.271,1.438,2.403,2.78,3.393,4.034l2.4-2.587c0.383-0.443,0.782-0.902,1.202-1.375
	c1.29-1.447,2.532-2.755,3.721-3.93l0.055-0.057l9.295-10.018v-5.323L72.151,39.564z"/>
</svg>
